<svg xmlns="http://www.w3.org/2000/svg" width="160" height="166" viewBox="0 0 160 166">
  <defs>
    <linearGradient id="rim" x2="0" y2="1"><stop stop-color="#fff6dc"/><stop offset=".5" stop-color="#d9c19a"/><stop offset="1" stop-color="#a48761"/></linearGradient>
    <linearGradient id="blue" x2="0" y2="1"><stop stop-color="#49cefc"/><stop offset=".38" stop-color="#299aee"/><stop offset="1" stop-color="#1653b5"/></linearGradient>
    <linearGradient id="gold" x2="0" y2="1"><stop stop-color="#ffdb36"/><stop offset=".42" stop-color="#ffc110"/><stop offset="1" stop-color="#f08a00"/></linearGradient>
  </defs>
  <rect x="3" y="8" width="154" height="155" rx="37" fill="#2c2221" opacity=".45"/>
  <rect x="3" y="2" width="154" height="155" rx="37" fill="url(#rim)" stroke="#715b42" stroke-width="3"/>
  <rect x="9" y="8" width="142" height="142" rx="31" fill="#fff4d7"/>
  <rect x="14" y="13" width="132" height="133" rx="27" fill="url(#blue)" stroke="#3b668c" stroke-width="3"/>
  <rect x="21" y="20" width="118" height="116" rx="23" fill="none" stroke="#a0e1fc" stroke-width="2" opacity=".65"/>
  <ellipse cx="34" cy="31" rx="10" ry="5" transform="rotate(-30 34 31)" fill="#c8f3ff" opacity=".65"/>
  <path d="M61 67V53a19 19 0 0 1 38 0v14" fill="none" stroke="#935512" stroke-width="15"/>
  <path d="M61 65V51a19 19 0 0 1 38 0v14" fill="none" stroke="url(#gold)" stroke-width="11"/>
  <rect x="46" y="65" width="68" height="58" rx="13" fill="#914607" opacity=".7"/>
  <rect x="45" y="60" width="70" height="58" rx="13" fill="url(#gold)" stroke="#a8610a" stroke-width="3"/>
  <path d="M57 66H103" stroke="#ffed86" stroke-width="4" stroke-linecap="round"/>
  <path d="M87 84a8 8 0 1 0-14 5l-3 15h20l-3-15a8 8 0 0 0 0-5Z" fill="#814007" stroke="#df8608" stroke-width="2"/>
</svg>
